<mxfile host="app.diagrams.net" modified="2024-02-21T10:06:14.069Z" agent="Mozilla/5.0 (Windows NT 10.0; Win64; x64) AppleWebKit/537.36 (KHTML, like Gecko) Chrome/121.0.0.0 Safari/537.36" etag="bb6oLDwK8eufcS0fQM4h" version="23.1.1" type="device">
  <diagram id="R2lEEEUBdFMjLlhIrx00" name="Page-1">
    <mxGraphModel dx="880" dy="468" grid="1" gridSize="10" guides="1" tooltips="1" connect="1" arrows="1" fold="1" page="1" pageScale="1" pageWidth="850" pageHeight="1100" math="0" shadow="0" extFonts="Permanent Marker^https://fonts.googleapis.com/css?family=Permanent+Marker">
      <root>
        <mxCell id="0" />
        <mxCell id="1" parent="0" />
        <mxCell id="Pzz6Evy_gwkti_ofxHVr-2" style="edgeStyle=orthogonalEdgeStyle;rounded=0;orthogonalLoop=1;jettySize=auto;html=1;" edge="1" parent="1" source="Pzz6Evy_gwkti_ofxHVr-1">
          <mxGeometry relative="1" as="geometry">
            <mxPoint x="365" y="200" as="targetPoint" />
          </mxGeometry>
        </mxCell>
        <mxCell id="Pzz6Evy_gwkti_ofxHVr-1" value="school" style="rounded=1;whiteSpace=wrap;html=1;" vertex="1" parent="1">
          <mxGeometry x="305" y="120" width="120" height="40" as="geometry" />
        </mxCell>
        <mxCell id="Pzz6Evy_gwkti_ofxHVr-4" style="edgeStyle=orthogonalEdgeStyle;rounded=0;orthogonalLoop=1;jettySize=auto;html=1;" edge="1" parent="1" source="Pzz6Evy_gwkti_ofxHVr-3">
          <mxGeometry relative="1" as="geometry">
            <mxPoint x="365" y="290" as="targetPoint" />
          </mxGeometry>
        </mxCell>
        <mxCell id="Pzz6Evy_gwkti_ofxHVr-3" value="teacher" style="rhombus;whiteSpace=wrap;html=1;" vertex="1" parent="1">
          <mxGeometry x="332.5" y="200" width="65" height="60" as="geometry" />
        </mxCell>
        <mxCell id="Pzz6Evy_gwkti_ofxHVr-6" style="edgeStyle=orthogonalEdgeStyle;rounded=0;orthogonalLoop=1;jettySize=auto;html=1;" edge="1" parent="1" source="Pzz6Evy_gwkti_ofxHVr-5">
          <mxGeometry relative="1" as="geometry">
            <mxPoint x="365" y="380" as="targetPoint" />
          </mxGeometry>
        </mxCell>
        <mxCell id="Pzz6Evy_gwkti_ofxHVr-5" value="Student" style="rounded=1;whiteSpace=wrap;html=1;" vertex="1" parent="1">
          <mxGeometry x="305" y="290" width="120" height="40" as="geometry" />
        </mxCell>
        <mxCell id="Pzz6Evy_gwkti_ofxHVr-7" value="" style="endArrow=none;html=1;rounded=0;" edge="1" parent="1">
          <mxGeometry width="50" height="50" relative="1" as="geometry">
            <mxPoint x="170" y="380" as="sourcePoint" />
            <mxPoint x="530" y="380" as="targetPoint" />
          </mxGeometry>
        </mxCell>
        <mxCell id="Pzz6Evy_gwkti_ofxHVr-8" value="" style="endArrow=none;html=1;rounded=0;" edge="1" parent="1">
          <mxGeometry width="50" height="50" relative="1" as="geometry">
            <mxPoint x="170" y="420" as="sourcePoint" />
            <mxPoint x="170" y="380" as="targetPoint" />
          </mxGeometry>
        </mxCell>
        <mxCell id="Pzz6Evy_gwkti_ofxHVr-9" value="" style="endArrow=none;html=1;rounded=0;" edge="1" parent="1">
          <mxGeometry width="50" height="50" relative="1" as="geometry">
            <mxPoint x="260" y="380" as="sourcePoint" />
            <mxPoint x="260" y="420" as="targetPoint" />
          </mxGeometry>
        </mxCell>
        <mxCell id="Pzz6Evy_gwkti_ofxHVr-10" value="" style="endArrow=none;html=1;rounded=0;" edge="1" parent="1">
          <mxGeometry width="50" height="50" relative="1" as="geometry">
            <mxPoint x="350" y="380" as="sourcePoint" />
            <mxPoint x="350" y="420" as="targetPoint" />
          </mxGeometry>
        </mxCell>
        <mxCell id="Pzz6Evy_gwkti_ofxHVr-11" value="" style="endArrow=none;html=1;rounded=0;" edge="1" parent="1">
          <mxGeometry width="50" height="50" relative="1" as="geometry">
            <mxPoint x="430" y="380" as="sourcePoint" />
            <mxPoint x="430" y="420" as="targetPoint" />
          </mxGeometry>
        </mxCell>
        <mxCell id="Pzz6Evy_gwkti_ofxHVr-12" value="" style="endArrow=none;html=1;rounded=0;" edge="1" parent="1">
          <mxGeometry width="50" height="50" relative="1" as="geometry">
            <mxPoint x="530" y="380" as="sourcePoint" />
            <mxPoint x="530" y="420" as="targetPoint" />
          </mxGeometry>
        </mxCell>
        <mxCell id="Pzz6Evy_gwkti_ofxHVr-13" value="s-Id" style="rhombus;whiteSpace=wrap;html=1;" vertex="1" parent="1">
          <mxGeometry x="130" y="420" width="80" height="80" as="geometry" />
        </mxCell>
        <mxCell id="Pzz6Evy_gwkti_ofxHVr-14" value="s-Name" style="rhombus;whiteSpace=wrap;html=1;" vertex="1" parent="1">
          <mxGeometry x="220" y="420" width="80" height="80" as="geometry" />
        </mxCell>
        <mxCell id="Pzz6Evy_gwkti_ofxHVr-15" value="s-result" style="rhombus;whiteSpace=wrap;html=1;" vertex="1" parent="1">
          <mxGeometry x="310" y="420" width="80" height="90" as="geometry" />
        </mxCell>
        <mxCell id="Pzz6Evy_gwkti_ofxHVr-20" style="edgeStyle=orthogonalEdgeStyle;rounded=0;orthogonalLoop=1;jettySize=auto;html=1;" edge="1" parent="1" source="Pzz6Evy_gwkti_ofxHVr-16">
          <mxGeometry relative="1" as="geometry">
            <mxPoint x="430" y="540" as="targetPoint" />
          </mxGeometry>
        </mxCell>
        <mxCell id="Pzz6Evy_gwkti_ofxHVr-16" value="s-Game" style="rhombus;whiteSpace=wrap;html=1;" vertex="1" parent="1">
          <mxGeometry x="390" y="420" width="80" height="80" as="geometry" />
        </mxCell>
        <mxCell id="Pzz6Evy_gwkti_ofxHVr-21" style="edgeStyle=orthogonalEdgeStyle;rounded=0;orthogonalLoop=1;jettySize=auto;html=1;" edge="1" parent="1" source="Pzz6Evy_gwkti_ofxHVr-17">
          <mxGeometry relative="1" as="geometry">
            <mxPoint x="530" y="540" as="targetPoint" />
          </mxGeometry>
        </mxCell>
        <mxCell id="Pzz6Evy_gwkti_ofxHVr-17" value="s-Book" style="rhombus;whiteSpace=wrap;html=1;" vertex="1" parent="1">
          <mxGeometry x="490" y="420" width="80" height="80" as="geometry" />
        </mxCell>
        <mxCell id="Pzz6Evy_gwkti_ofxHVr-23" value="" style="endArrow=none;html=1;rounded=0;" edge="1" parent="1">
          <mxGeometry width="50" height="50" relative="1" as="geometry">
            <mxPoint x="390" y="520" as="sourcePoint" />
            <mxPoint x="410" y="480" as="targetPoint" />
          </mxGeometry>
        </mxCell>
        <mxCell id="Pzz6Evy_gwkti_ofxHVr-24" value="" style="endArrow=none;html=1;rounded=0;entryX=1;entryY=1;entryDx=0;entryDy=0;" edge="1" parent="1" target="Pzz6Evy_gwkti_ofxHVr-16">
          <mxGeometry width="50" height="50" relative="1" as="geometry">
            <mxPoint x="470" y="520" as="sourcePoint" />
            <mxPoint x="500" y="500" as="targetPoint" />
          </mxGeometry>
        </mxCell>
        <mxCell id="Pzz6Evy_gwkti_ofxHVr-25" value="Kabaddi" style="rhombus;whiteSpace=wrap;html=1;" vertex="1" parent="1">
          <mxGeometry x="360" y="510" width="50" height="60" as="geometry" />
        </mxCell>
        <mxCell id="Pzz6Evy_gwkti_ofxHVr-26" value="Kho-Kho" style="rhombus;whiteSpace=wrap;html=1;" vertex="1" parent="1">
          <mxGeometry x="450" y="520" width="50" height="50" as="geometry" />
        </mxCell>
        <mxCell id="Pzz6Evy_gwkti_ofxHVr-27" value="cricket" style="rhombus;whiteSpace=wrap;html=1;" vertex="1" parent="1">
          <mxGeometry x="405" y="540" width="50" height="60" as="geometry" />
        </mxCell>
        <mxCell id="Pzz6Evy_gwkti_ofxHVr-31" value="" style="endArrow=none;html=1;rounded=0;" edge="1" parent="1">
          <mxGeometry width="50" height="50" relative="1" as="geometry">
            <mxPoint x="310" y="530" as="sourcePoint" />
            <mxPoint x="330" y="490" as="targetPoint" />
          </mxGeometry>
        </mxCell>
        <mxCell id="Pzz6Evy_gwkti_ofxHVr-32" value="IA-Marks" style="rhombus;whiteSpace=wrap;html=1;" vertex="1" parent="1">
          <mxGeometry x="270" y="520" width="70" height="70" as="geometry" />
        </mxCell>
      </root>
    </mxGraphModel>
  </diagram>
</mxfile>
